<?xml version="1.0" encoding="UTF-8"?>
<svg id="ORIGINAL" xmlns="http://www.w3.org/2000/svg" version="1.1" viewBox="0 0 510.1398 195.9307">
  <defs>
    <style>
      .cls-1 {
        fill: #92c028;
      }

      .cls-1, .cls-2, .cls-3 {
        stroke-width: 0px;
      }

      .cls-2 {
        fill: #b7c9e2;
      }

      .cls-3 {
        fill: #222423;
      }
    </style>
  </defs>
  <path class="cls-3" d="M40.8796,155.6396c0,1.2416-.5812,1.6661-1.4774,1.6661-.7851,0-1.2248-.4717-1.6004-1.1473l-1.3511.8323c.502.9889,1.4437,1.8042,3.0306,1.8042,1.7891,0,3.061-1.0041,3.061-3.1233v-7.6954h-1.6627v7.6634ZM48.4469,144.9927c-.4868,0-.9417.4245-.9417.9569,0,.5188.4549.9417.9417.9417.5021,0,.9569-.4229.9569-.9417,0-.5324-.4548-.9569-.9569-.9569ZM46.139,158.6534h1.6476v-10.6772h-1.6476v10.6772ZM291.1147,43.3022c0-.8574-.1406-2.0063-.1406-2.0063,0,0,.7617.9639,1.3125,1.5596l7.6563,8.2617h.2695v-14.0513h-2.0078v7.6489c0,.7784.1406,1.9981.1406,1.9981,0,0-.7539-.9771-1.2852-1.5459l-7.6601-8.2481h-.2871v14.0513h2.0019v-7.668ZM46.4355,145.9496c0-.5324-.438-.9569-.94-.9569-.4869,0-.9569.4245-.9569.9569,0,.5188.47.9417.9569.9417.502,0,.94-.4229.94-.9417ZM53.0948,154.0055h4.5384v-1.4269h-4.5384v-3.1435h5.1196v-1.4589h-6.7823v10.6772h7.0013v-1.4589h-5.3386v-3.189ZM82.5724,152.7353h-5.1381v-4.7591h-1.6628v10.6772h1.6628v-4.444h5.1381v4.444h1.6627v-10.6772h-1.6627v4.7591ZM87.0468,149.4351h3.1721v9.2183h1.6476v-9.2183h3.1721v-1.4589h-7.9918v1.4589ZM91.8485,133.5703l-12.9676-29.8828h-.5285l-12.6576,29.8828h4.4478l2.1723-5.3906h12.5732l2.1753,5.3906h4.7851ZM73.8857,124.3496l3.2203-8.0488c.6859-1.7051,1.3828-4.2246,1.4209-4.3574.0487.2207.83,2.7421,1.4809,4.3574l3.2279,8.0488h-9.35ZM66.9458,153.8337l-5.1027-5.967h-.1735v10.7867h1.5852v-5.5424c0-.5813-.0624-1.4909-.0624-1.523.0455.0624.5492.8171.9418,1.2719l2.6853,3.2345h.1886l2.687-3.2345c.4229-.4717.9265-1.2398.9569-1.2719,0,.0321-.0623.9417-.0623,1.523v5.5424h1.5852v-10.7867h-.1736l-5.0555,5.967ZM55.8247,117.166h-14.2201v-13.1797h-4.6167v29.584h4.6167v-12.3144h14.2201v12.3144h4.6108v-29.584h-4.6108v13.1797ZM74.4927,100.9863c1.391,0,2.6133-1.1758,2.6133-2.6137,0-1.4805-1.2223-2.6568-2.6133-2.6568-1.3501,0-2.6568,1.1763-2.6568,2.6568,0,1.4379,1.3067,2.6137,2.6568,2.6137ZM169.6243,103.9863v29.584h8.1361c9.5245,0,15.7906-5.918,15.7906-14.7988,0-8.8652-6.3096-14.7852-15.7906-14.7852h-8.1361ZM188.7604,118.7715c0,6.3164-3.5986,10.7539-11.3076,10.7539h-3.2176v-21.4883h3.2176c7.709,0,11.3076,4.4277,11.3076,10.7344ZM136.0009,75.5479c0-1.6143-.1715-4.1348-.1715-4.2271.1225.1792,1.5161,2.2646,2.605,3.5278l7.4424,8.9639h.5195l7.4394-8.9639c1.1763-1.3066,2.5699-3.4355,2.6573-3.5278,0,.0923-.1744,2.6128-.1744,4.2271v15.3554h4.3931v-29.894h-.4814l-14.0078,16.5395-14.1416-16.5395h-.4737v29.894h4.3937v-15.3554ZM237.0885,49.0728h-6.9527v-4.1563h5.9073v-1.8623h-5.9073v-4.083h6.6695v-1.9053h-8.8335v13.9043h9.1167v-1.8974ZM118.6884,58.3091c1.3964,0,2.6566-1.1763,2.6566-2.6079,0-1.4727-1.2602-2.6485-2.6566-2.6485-1.3478,0-2.6105,1.1758-2.6105,2.6485,0,1.4316,1.2627,2.6079,2.6105,2.6079ZM211.9117,86.853h-13.662v-25.5361h-4.6167v29.5864h18.2787v-4.0503ZM249.504,51.1553c2.5781,0,4.5-.958,5.3983-1.7749v-5.542h-5.7284v1.8755h3.7461v2.5996c-.7734.5337-2.0039.9062-3.416.9062-3.1606,0-5.2105-2.2373-5.2105-5.207,0-2.9561,2.0254-5.1665,4.9273-5.1665,1.6582,0,2.6758.5332,3.4805,1.3774l1.455-1.4619c-1.1328-1.2656-2.8105-1.8564-4.9355-1.8564-4.124,0-7.1294,2.959-7.1294,7.1074,0,4.1592,3.0679,7.1426,7.4126,7.1426ZM214.4758,45.8174h2.515l3.0137,5.1528h2.4663l-3.2666-5.5014c1.6905-.5909,2.8144-1.919,2.8144-3.9878,0-3.0704-2.1883-4.4151-5.0467-4.4151h-4.6626v13.9043h2.1665v-5.1528ZM214.4758,38.9712h2.4145c1.8238,0,2.9018.7158,2.9018,2.5098,0,1.7641-1.0614,2.5151-2.9018,2.5151h-2.4145v-5.0249ZM263.1656,37.0659h-2.1505v13.9043h2.1505v-13.9043ZM277.5933,90.9033h8.1386c9.5274,0,15.7929-5.9204,15.7929-14.792,0-8.8794-6.3144-14.7944-15.7929-14.7944h-8.1386v29.5864ZM282.2026,65.3594h3.2207c7.7032,0,11.3106,4.4424,11.3106,10.7519s-3.6074,10.7417-11.3106,10.7417h-3.2207v-21.4936ZM110.5087,58.3091c1.3852,0,2.6049-1.1763,2.6049-2.6079,0-1.4727-1.2197-2.6485-2.6049-2.6485-1.3478,0-2.6597,1.1758-2.6597,2.6485,0,1.4316,1.3119,2.6079,2.6597,2.6079ZM89.8832,91.29c4.9707,0,8.4932-2.7822,8.4932-8.6508v-21.3223h-4.6114v21.2324c0,3.4326-1.6172,4.6084-4.0942,4.6084-2.1831,0-3.397-1.3066-4.437-3.1714l-3.7401,2.3003c1.3886,2.7437,4.0014,5.0034,8.3895,5.0034ZM82.6646,100.9863c1.3958,0,2.6566-1.1758,2.6566-2.6137,0-1.4805-1.2608-2.6568-2.6566-2.6568-1.3478,0-2.611,1.1763-2.611,2.6568,0,1.4379,1.2632,2.6137,2.611,2.6137ZM108.3334,85.5029h12.5761l2.1777,5.4004h4.7799l-12.9732-29.894h-.52l-12.6494,29.894h4.4312l2.1777-5.4004ZM113.1136,73.6289c.7022-1.6958,1.3935-4.2192,1.4425-4.3525.0409.2202.8222,2.7436,1.4755,4.3525l3.2232,8.0518h-9.3589l3.2177-8.0518ZM231.0504,103.9863h-4.6109v29.584h18.2705v-4.0449h-13.6596v-25.5391ZM241.0671,153.8488c0,.5964.1095,1.5397.1095,1.5397,0,0-.5813-.7546-.9889-1.1943l-5.8895-6.3275h-.219v10.7867h1.5364v-5.8878c0-.6587-.1095-1.5381-.1095-1.5381,0,0,.5812.7379,1.0057,1.1927l5.8895,6.3427h.2038v-10.7867h-1.538v5.8726ZM218.5486,158.6534h1.6476v-10.6772h-1.6476v10.6772ZM269.937,129.5254h-14.7847v-8.8359h12.5699v-3.9649h-12.5699v-8.6875h14.1813v-4.0508h-18.7984v29.584h19.4018v-4.0449ZM207.6896,103.6875l-12.6601,29.8828h4.4341l2.1831-5.3906h12.5625l2.1748,5.3906h4.7934l-12.9594-29.8828h-.5284ZM212.5568,124.3496h-9.3423l3.2178-8.0488c.6968-1.7051,1.3882-4.2246,1.4317-4.3574.0463.2207.8276,2.7421,1.4808,4.3574l3.212,8.0488ZM253.754,147.9762h-2.9347v10.6772h2.9347c3.44,0,5.7007-2.1345,5.7007-5.3386s-2.2759-5.3386-5.7007-5.3386ZM253.6445,157.1945h-1.1624v-7.7594h1.1624c2.7796,0,4.0835,1.6021,4.0835,3.8797s-1.3039,3.8797-4.0835,3.8797ZM225.5028,154.0055h4.5383v-1.4269h-4.5383v-3.1435h5.1196v-1.4589h-6.7823v10.6772h7.003v-1.4589h-5.3403v-3.189ZM236.794,90.9033h4.7827l-12.9652-29.894h-.5196l-12.6636,29.894h4.4429l2.1748-5.4004h12.5786l2.1694,5.4004ZM223.6085,81.6807l3.2173-8.0518c.6972-1.6958,1.3994-4.2192,1.4428-4.3525.0412.2202.8223,2.7436,1.4756,4.3525l3.2256,8.0518h-9.3613ZM250.6632,74.5869c0-1.8291-.2959-4.2681-.2959-4.2681,0,0,1.6054,2.0499,2.7812,3.3101l16.3101,17.5737h.5722v-29.8857h-4.2636v16.27c0,1.6602.3007,4.2681.3007,4.2681,0,0-1.6015-2.0904-2.7364-3.3047l-16.3187-17.541h-.6094v29.894h4.2598v-16.3164ZM286.3717,153.7073c-.3302.7227-.6284,1.9002-.6284,1.9002,0,0-.3302-1.1926-.6435-1.9002l-2.4023-5.7311h-1.7739l4.6782,10.7867h.2039l4.5535-10.7867h-1.6173l-2.3702,5.7311ZM294.7881,154.0055h4.5384v-1.4269h-4.5384v-3.1435h5.1179v-1.4589h-6.7806v10.6772h7.0012v-1.4589h-5.3385v-3.189ZM283.2534,116.3008l16.3066,17.5742h.5665v-29.8887h-4.2598v16.2676c0,1.6484.2988,4.2676.2988,4.2676,0,0-1.6015-2.0899-2.7305-3.3067l-16.3222-17.5273h-.6094v29.8828h4.2656v-16.3164c0-1.8262-.3066-4.2637-.3066-4.2637,0,0,1.6152,2.0411,2.791,3.3106ZM276.5571,155.6396c0,1.2416-.5812,1.6661-1.4758,1.6661-.785,0-1.2247-.4717-1.6021-1.1473l-1.351.8323c.5037.9889,1.4453,1.8042,3.0323,1.8042,1.7891,0,3.0593-1.0041,3.0593-3.1233v-7.6954h-1.6627v7.6634ZM265.4217,147.8667l-4.5687,10.7867h1.6021l.785-1.9475h4.5367l.785,1.9475h1.7285l-4.6799-10.7867h-.1887ZM267.1804,155.3262h-3.3742l1.1607-2.9043c.2509-.6132.502-1.5246.5188-1.5717.0152.0791.2982.9906.534,1.5717l1.1607,2.9043ZM283.3354,44.0127c0-4.1484-3.1953-7.1318-7.1621-7.1318-3.9863,0-7.1718,2.9834-7.1718,7.1318,0,4.1592,3.1855,7.1426,7.1718,7.1426,3.9668,0,7.1621-2.9834,7.1621-7.1426ZM271.2144,44.0127c0-2.9561,2.0605-5.1885,4.9589-5.1885,2.9063,0,4.9571,2.2324,4.9571,5.1885,0,2.9697-2.0508,5.207-4.9571,5.207-2.8984,0-4.9589-2.2373-4.9589-5.207ZM200.3463,154.0055h4.5383v-1.4269h-4.5383v-3.1435h5.1195v-1.4589h-6.7823v10.6772h7.003v-1.4589h-5.3402v-3.189ZM138.5525,154.0055h4.5384v-1.4269h-4.5384v-3.1435h5.1196v-1.4589h-6.7823v10.6772h7.0013v-1.4589h-5.3386v-3.189ZM131.6566,125.2188c0,3.4394-1.6172,4.6113-4.0943,4.6113-2.1777,0-3.3915-1.3008-4.4341-3.1738l-3.7456,2.3027c1.3966,2.7441,4.0069,5.0078,8.3946,5.0078,4.9571,0,8.4848-2.7813,8.4848-8.6621v-21.3184h-4.6054v21.2325ZM154.5851,151.3674c0-2.3551-1.6779-3.3912-3.8763-3.3912h-3.5798v10.6772h1.6627v-3.9572h1.9322l2.3097,3.9572h1.8985l-2.5118-4.2234c1.3023-.4548,2.1648-1.4757,2.1648-3.0626ZM150.6448,153.3013h-1.8531v-3.8662h1.8531c1.3982,0,2.2321.5509,2.2321,1.9323,0,1.351-.817,1.9339-2.2321,1.9339ZM161.0103,155.6396c0,1.2416-.5812,1.6661-1.4758,1.6661-.785,0-1.2247-.4717-1.6021-1.1473l-1.3493.8323c.502.9889,1.4437,1.8042,3.0306,1.8042,1.7891,0,3.0593-1.0041,3.0593-3.1233v-7.6954h-1.6627v7.6634ZM115.0773,153.8488c0,.5964.1111,1.5397.1111,1.5397,0,0-.5812-.7546-.9905-1.1943l-5.8878-6.3275h-.2207v10.7867h1.5381v-5.8878c0-.6587-.1095-1.5381-.1095-1.5381,0,0,.5795.7379,1.004,1.1927l5.8895,6.3427h.2038v-10.7867h-1.538v5.8726ZM116.2494,113.3828c0-6.5273-4.6549-9.3965-10.7495-9.3965h-9.9111v29.584h4.6113v-10.9648h5.3462l6.397,10.9648h5.2617l-6.9581-11.7051c3.607-1.2636,6.0025-4.0898,6.0025-8.4824ZM105.3285,118.7266h-5.1284v-10.6895h5.1284c3.8706,0,6.1792,1.5234,6.1792,5.3457,0,3.7363-2.2622,5.3438-6.1792,5.3438ZM131.6287,152.7353h-5.1365v-4.7591h-1.6627v10.6772h1.6627v-4.444h5.1365v4.444h1.6627v-10.6772h-1.6627v4.7591ZM148.2664,120.6895h12.5708v-3.9649h-12.5708v-8.6875h14.1768v-4.0508h-18.7935v29.584h19.4058v-4.0449h-14.7891v-8.8359ZM191.0505,147.8667l-4.5687,10.7867h1.6021l.785-1.9475h4.5367l.7851,1.9475h1.7267l-4.6782-10.7867h-.1887ZM192.8093,155.3262h-3.376l1.1623-2.9043c.2511-.6132.5021-1.5246.5173-1.5717.0168.0791.2998.9906.534,1.5717l1.1624,2.9043ZM210.5854,147.9762h-1.6627v10.6772h6.5937v-1.4589h-4.931v-9.2183ZM99.5146,154.0055h4.5384v-1.4269h-4.5384v-3.1435h5.118v-1.4589h-6.7807v10.6772h7.0014v-1.4589h-5.3387v-3.189ZM179.3828,147.9762h-2.9346v10.6772h2.9346c3.44,0,5.6991-2.1345,5.6991-5.3386s-2.2743-5.3386-5.6991-5.3386ZM179.2733,157.1945h-1.1641v-7.7594h1.1641c2.7796,0,4.0835,1.6021,4.0835,3.8797s-1.3039,3.8797-4.0835,3.8797ZM174.8884,90.9033h4.5732v-25.5439h8.7788v-4.0425h-22.1498v4.0425h8.7978v25.5439ZM167.8718,154.0055h4.5383v-1.4269h-4.5383v-3.1435h5.1195v-1.4589h-6.7823v10.6772h7.0013v-1.4589h-5.3385v-3.189Z"/>
  <path class="cls-2" d="M344.1224,108.2617h-17.5039l6.7481,6.7324h17.4629l-6.7071-6.7324ZM335.2338,99.3555h-17.5078l5.7929,5.7949h17.5078l-5.7929-5.7949ZM359.7943,141.4238l8.7149-8.709h-17.4317l8.7168,8.709ZM392.9212,108.2617h-17.4434l-6.7168,6.7324h17.4102l6.75-6.7324ZM401.8547,99.3555h-17.496l-5.7871,5.7949h17.4668l5.8163-5.7949ZM454.1202,99.3555l-5.8046,5.7949h17.4296l5.8047-5.7949h-17.4297ZM438.468,114.9941h17.4453l6.7323-6.7324h-17.4335l-6.7441,6.7324ZM423.8605,129.6113h17.4336l11.5136-11.5175h-17.4433l-11.5039,11.5175ZM412.1243,141.3379l-8.6192-8.6231h-17.5117l14.3124,14.2676h23.625l14.2637-14.2676h-17.4375l-8.6327,8.6231ZM412.1243,158.7949l8.7128-8.707h-17.4199l8.7071,8.707ZM388.8763,118.0938h-23.2188l-5.875,5.8769-5.8456-5.8769h-17.4668l11.5098,11.5175h23.6327l5.6269-5.6406,5.6602,5.6406h17.4921l-11.5155-11.5175Z"/>
  <polygon class="cls-1" points="412.1281 36.8047 377.2473 71.6309 359.8002 54.1797 317.726 96.2441 335.2396 96.2441 359.7943 71.6255 384.3587 96.2441 401.8605 96.2441 385.97 80.4067 412.1281 54.2642 454.1241 96.2441 471.5518 96.2441 412.1281 36.8047"/>
</svg>